<svg width="496.158" height="496.158" xmlns="http://www.w3.org/2000/svg">
 <g>
  <title>background</title>
  <rect fill="none" id="canvas_background" height="498.158" width="498.158" y="-1" x="-1"/>
 </g>
 <g>
  <title>Layer 1</title>
  <path id="svg_3" fill="#0000ff" d="m223.082,121.066l-60.006,0c-5.523,0 -10,4.479 -10,10l0,234.024c0,5.523 4.477,10 10,10l60.006,0c5.523,0 10,-4.477 10,-10l0,-234.024c0,-5.521 -4.477,-10 -10,-10z"/>
  <path id="svg_4" fill="#0000ff" d="m333.082,121.066l-60.006,0c-5.523,0 -10,4.479 -10,10l0,234.024c0,5.523 4.477,10 10,10l60.006,0c5.523,0 10,-4.477 10,-10l0,-234.024c0,-5.521 -4.477,-10 -10,-10z"/>
 </g>
</svg>