<svg width="496.158" height="496.158" xmlns="http://www.w3.org/2000/svg">
 <g>
  <title>background</title>
  <rect fill="none" id="canvas_background" height="498.158" width="498.158" y="-1" x="-1"/>
 </g>
 <g>
  <title>Layer 1</title>
  <path id="svg_3" fill="#999999" d="m208.121,236.937l149.525,-91.812c4.082,-2.506 9.453,-2.615 13.633,-0.275c4.254,2.379 6.896,6.887 6.896,11.762l0,182.901c0,4.867 -2.633,9.369 -6.877,11.754c-2.01,1.129 -4.293,1.727 -6.602,1.727c-2.475,0 -4.9,-0.682 -7.012,-1.969l-149.523,-91.088c-3.98,-2.424 -6.459,-6.826 -6.467,-11.489c-0.007,-4.661 2.456,-9.073 6.427,-11.511z"/>
  <path id="svg_4" fill="#999999" d="m126.564,139.057l51.508,0c4.74,0 8.584,3.844 8.584,8.584l0,200.877c0,4.74 -3.844,8.584 -8.584,8.584l-51.508,0c-4.74,0 -8.582,-3.844 -8.582,-8.584l0,-200.878c0,-4.74 3.842,-8.583 8.582,-8.583z"/>
 </g>
</svg>